<svg xmlns="http://www.w3.org/2000/svg" viewBox="0 0 64 64" fill="none">
  <rect width="64" height="64" rx="18" fill="#F3E9D7"/>
  <path d="M21 20C21 16.6863 23.6863 14 27 14H37C40.3137 14 43 16.6863 43 20V24C43 29.5228 38.5228 34 33 34H31C25.4772 34 21 29.5228 21 24V20Z" fill="#B8502E"/>
  <path d="M17 34C17 30.6863 19.6863 28 23 28H41C44.3137 28 47 30.6863 47 34V36C47 44.8366 39.8366 52 31 52H33C24.1634 52 17 44.8366 17 36V34Z" fill="#335C4D"/>
  <path d="M27 17.5C29.8333 18.8333 34.9 22.2 37.5 28" stroke="#F3E9D7" stroke-width="3.5" stroke-linecap="round"/>
</svg>
