<svg xmlns="http://www.w3.org/2000/svg" viewBox="0 0 920 720" fill="none">
  <rect width="920" height="720" rx="44" fill="#F6EFE2"/>
  <rect x="70" y="84" width="780" height="552" rx="36" fill="#F3E4D2"/>
  <circle cx="298" cy="286" r="138" fill="#FFF8EE"/>
  <circle cx="298" cy="286" r="112" fill="#335C4D"/>
  <circle cx="298" cy="286" r="84" fill="#F6EFE2"/>
  <path d="M244 284C268 247 328 236 360 281C384 314 358 363 302 365C255 367 226 325 244 284Z" fill="#B8502E"/>
  <path d="M241 275C260 255 280 246 304 245C330 245 353 255 369 279C348 266 324 260 297 260C277 260 258 265 241 275Z" fill="#D89D42"/>
  <circle cx="596" cy="222" r="106" fill="#FFF8EE"/>
  <circle cx="596" cy="222" r="82" fill="#B8502E"/>
  <path d="M551 214C566 189 608 180 637 205C663 227 653 268 611 282C572 295 536 245 551 214Z" fill="#F3C9A8"/>
  <path d="M526 451C526 395.772 570.772 351 626 351H638C693.228 351 738 395.772 738 451V467C738 522.228 693.228 567 638 567H626C570.772 567 526 522.228 526 467V451Z" fill="#FFF8EE"/>
  <path d="M552 455C552 414.131 585.131 381 626 381H638C678.869 381 712 414.131 712 455V463C712 503.869 678.869 537 638 537H626C585.131 537 552 503.869 552 463V455Z" fill="#D89D42"/>
  <path d="M582 420C603 398 646 392 675 412C653 414 632 423 613 439C603 449 594 461 587 474C578 458 576 436 582 420Z" fill="#335C4D"/>
  <path d="M185 494C185 444.294 225.294 404 275 404H321C370.706 404 411 444.294 411 494V510C411 559.706 370.706 600 321 600H275C225.294 600 185 559.706 185 510V494Z" fill="#FFF8EE"/>
  <path d="M214 500C214 466.863 240.863 440 274 440H322C355.137 440 382 466.863 382 500V504C382 537.137 355.137 564 322 564H274C240.863 564 214 537.137 214 504V500Z" fill="#335C4D"/>
  <path d="M233 494C251 476 276 466 303 466C325 466 344 473 359 486C339 489 323 495 308 506C292 517 279 530 268 545C254 533 244 515 233 494Z" fill="#F6EFE2"/>
  <path d="M424 110C442 130 458 160 472 198" stroke="#B8502E" stroke-width="20" stroke-linecap="round"/>
  <path d="M719 121C738 142 754 172 766 201" stroke="#335C4D" stroke-width="18" stroke-linecap="round"/>
  <path d="M445 607C479 589 505 570 526 548" stroke="#D89D42" stroke-width="16" stroke-linecap="round"/>
</svg>
