<svg xmlns="http://www.w3.org/2000/svg" viewBox="0 0 400 400" fill="none">
  <rect width="400" height="400" fill="#F8F1E5"/>
  <circle cx="86" cy="86" r="36" fill="#F3C9A8"/>
  <circle cx="314" cy="86" r="36" fill="#D89D42"/>
  <circle cx="86" cy="314" r="36" fill="#335C4D"/>
  <circle cx="314" cy="314" r="36" fill="#B8502E"/>
  <path d="M160 116C160 98.3269 174.327 84 192 84H208C225.673 84 240 98.3269 240 116V128C240 145.673 225.673 160 208 160H192C174.327 160 160 145.673 160 128V116Z" fill="#FFF7ED"/>
  <path d="M160 272C160 254.327 174.327 240 192 240H208C225.673 240 240 254.327 240 272V284C240 301.673 225.673 316 208 316H192C174.327 316 160 301.673 160 284V272Z" fill="#FFF7ED"/>
  <path d="M84 176C84 158.327 98.3269 144 116 144H128C145.673 144 160 158.327 160 176V224C160 241.673 145.673 256 128 256H116C98.3269 256 84 241.673 84 224V176Z" fill="#FFF7ED"/>
  <path d="M240 176C240 158.327 254.327 144 272 144H284C301.673 144 316 158.327 316 176V224C316 241.673 301.673 256 284 256H272C254.327 256 240 241.673 240 224V176Z" fill="#FFF7ED"/>
</svg>
